<?xml version="1.0" standalone="no"?>
<!DOCTYPE svg PUBLIC "-//W3C//DTD SVG 1.0//EN" "http://www.w3.org/TR/2001/REC-SVG-20010904/DTD/svg10.dtd">
<svg xmlns="http://www.w3.org/2000/svg" xmlns:xlink="http://www.w3.org/1999/xlink" id="body_1" width="40" height="30">

<g transform="matrix(0.05859375 0 0 0.05859375 5.000001 -0)">
	<g>
        <path d="M258.8 507.2C 120.4 507.8 6.6 392.6 9.9 251.9C 13 117.9 124 7.2 262 8.7C 398.7 10.2 511.8 124 508.1 264.9C 504.6 398.3 394.5 507.9 258.8 507.2zM40.2 258.3C 41.3 383.6 142.9 480.1 262.9 478C 379.09998 475.9 477.59998 381.2 477.59998 258C 477.59998 132.7 375.19998 35.800003 254.79997 38.100006C 138.6 40.2 41 135.2 40.2 258.3z" stroke="none" fill="#ffffff" fill-rule="nonzero" />
        <path d="M206.8 433.4C 206.8 374.5 206.8 316.09998 206.8 257.09998C 193.8 257.09998 181.2 257.09998 168.3 257.09998C 168.3 237.09998 168.3 217.69998 168.3 197.69998C 170 197.59998 171.7 197.39998 173.5 197.39998C 182.8 197.39998 192.2 197.19998 201.5 197.49998C 205.6 197.59999 207 196.49998 206.9 192.29999C 206.7 177.09999 206.7 161.99998 206.79999 146.79999C 206.9 129.69998 211.69998 114.19999 223.9 101.79999C 235.7 89.79999 250.79999 83.29999 267.19998 82.29999C 293.59998 80.79999 320.09998 80.999985 346.59998 80.499985C 346.89996 80.499985 347.19998 80.79999 347.8 81.09998C 347.8 101.19998 347.8 121.39998 347.8 142.09998C 345.9 142.19998 344.09998 142.29997 342.4 142.29997C 330.4 142.29997 318.4 142.29997 306.4 142.29997C 294.3 142.39998 287.19998 149.59998 287.19998 161.49997C 287.19998 172.79997 287.19998 184.19997 287.3 195.49997C 287.3 195.79997 287.5 196.09998 287.8 197.19997C 307.59998 197.19997 327.59998 197.19997 348.59998 197.19997C 345.99997 217.49997 343.59998 236.89996 340.99997 256.99997C 322.89996 256.99997 305.19998 256.99997 286.99997 256.99997C 286.99997 316.19998 286.99997 374.8 286.99997 433.59998C 260.1 433.4 233.9 433.4 206.8 433.4z" stroke="none" fill="#FFFDFD" fill-rule="nonzero" />
	</g>
</g>
</svg>