<?xml version="1.0" standalone="no"?>
<!DOCTYPE svg PUBLIC "-//W3C//DTD SVG 1.0//EN" "http://www.w3.org/TR/2001/REC-SVG-20010904/DTD/svg10.dtd">
<svg xmlns="http://www.w3.org/2000/svg" xmlns:xlink="http://www.w3.org/1999/xlink" id="body_1" width="40" height="30">

<g transform="matrix(0.05859375 0 0 0.05859375 5.000001 -0)">
	<g>
        <path d="M258.9 507.2C 120.4 507.9 6.6 392.6 9.9 252C 12.9 118 124 7 262.3 8.7C 398.9 10.4 511.69998 124.1 508.09998 264.7C 504.7 398.2 394.7 507.8 258.9 507.2zM40.2 257.9C 41.100002 380.5 138.1 476.09998 254.59999 477.8C 378.19998 479.59998 477.4 382.09998 477.7 258.3C 477.80002 135.59999 379.90002 40.299988 263.2 37.999985C 143.1 35.7 41.2 132.3 40.2 257.9z" stroke="none" fill="#FFFFFF" fill-rule="nonzero" />
        <path d="M413.2 261.3C 413.2 283.09998 412.6 305 413.30002 326.8C 414.80002 368.69998 384.6 403.69998 344.7 413.69998C 336.90002 415.69998 328.6 416.9 320.6 416.99997C 278.30002 417.29996 236 417.69998 193.70001 416.99997C 158.40001 416.39996 130.6 401.39996 111.80001 370.89996C 104.60001 359.19995 101.00001 346.19995 101.00001 332.39996C 100.90001 284.89996 100.50001 237.39996 101.100006 189.99997C 101.50001 158.99997 117.00001 136.09998 142.70001 119.69997C 158.70001 109.49997 176.40001 104.89996 195.30002 104.89996C 236.60002 104.799965 277.90002 104.39996 319.2 104.99996C 355.6 105.49996 384.40002 120.69996 403.1 152.69997C 409.80002 164.19997 413.2 176.89996 413.2 190.39996C 413.1 214 413.2 237.7 413.2 261.3zM124 261.1C 124 283.9 124 306.80002 124 329.6C 124 338.7 125.7 347.5 130 355.6C 143.8 381.6 166.4 393.4 194.9 393.80002C 236.2 394.40002 277.59998 394.1 318.9 393.80002C 326 393.80002 333.19998 392.6 340.1 390.80002C 367.6 383.40002 391 359.6 390.2 324.7C 389.2 280.7 390 236.70001 390 192.70001C 390 183.00002 388.2 173.80002 383.5 165.30002C 369.4 140.00002 346.9 128.50002 318.9 128.10002C 277.69998 127.50002 236.59999 127.70002 195.4 128.10002C 187.2 128.20003 178.79999 129.70003 170.9 132.10002C 144 140.40002 122.799995 164.30002 123.899994 196.50003C 124.6 218.1 124 239.6 124 261.1z" stroke="none" fill="#FFFFFF" fill-rule="nonzero" />
        <path d="M257.1 183C 297.80002 182.9 330.8 215.4 330.8 255.4C 330.69998 295.19998 297.8 327.7 257.5 327.8C 216.9 327.9 184 295.5 184 255.29999C 184 215.4 216.6 183.1 257.1 183zM257.1 206.2C 229.70001 206.3 207.1 228.59999 207.20001 255.5C 207.30002 282.40002 229.80002 304.5 257.40002 304.6C 284.90002 304.6 307.50003 282.5 307.60004 255.6C 307.5 228.3 284.8 206.1 257.1 206.2z" stroke="none" fill="#FFFFFF" fill-rule="nonzero" />
        <path d="M354.8 176.7C 355 185.2 348 192.7 339.69998 193C 331.19998 193.3 323.9 186.1 323.8 177.2C 323.69998 168.5 330.4 161.2 338.69998 160.9C 347.2 160.6 354.6 167.9 354.8 176.7z" stroke="none" fill="#FFFFFF" fill-rule="nonzero" />
	</g>
</g>
</svg>