<?xml version="1.0" standalone="no"?>
<!DOCTYPE svg PUBLIC "-//W3C//DTD SVG 1.0//EN" "http://www.w3.org/TR/2001/REC-SVG-20010904/DTD/svg10.dtd">
<svg xmlns="http://www.w3.org/2000/svg" xmlns:xlink="http://www.w3.org/1999/xlink" id="body_1" width="40" height="30">

<g transform="matrix(0.05859375 0 0 0.05859375 5.000001 -0)">
	<g>
        <path d="M259 507.2C 120.4 507.9 6.7 392.7 9.9 252.1C 12.9 118.100006 124 7.100006 262.3 8.700012C 398.9 10.300013 511.69998 124.10001 508.09998 264.7C 504.7 398.1 394.7 507.8 259 507.2zM40.2 258.2C 41.3 383.5 142.6 479.8 262.4 478C 378.59998 476.2 477.59998 381.6 477.7 258C 477.7 132.8 375.6 36 255.50002 38C 139.1 39.9 41 134.7 40.2 258.2z" stroke="none" fill="#FFFFFF" fill-rule="nonzero" />
        <path d="M326.6 375.6C 326.6 373.4 326.6 371.5 326.6 369.5C 326.6 342.8 326.7 316.2 326.5 289.5C 326.5 284.9 326.1 280.1 325 275.7C 321.4 260.90002 309.4 253.50002 292.1 254.90001C 279.30002 255.90001 267.80002 267.30002 266.9 280.5C 266.3 288.5 266.5 296.5 266.4 304.5C 266.3 326.2 266.4 347.8 266.4 369.5C 266.4 371.5 266.4 373.4 266.4 375.7C 250.2 375.7 234.4 375.7 218.29999 375.7C 218.29999 323.7 218.29999 271.6 218.29999 219.30002C 233.99998 219.30002 249.69998 219.30002 266 219.30002C 266 225.40002 266 231.60002 266 239.10002C 267.7 237.10002 268.7 236.10002 269.4 234.90002C 291 202.50003 349.59998 206.00003 367 244.20003C 371.8 254.80003 374.7 265.90002 374.8 277.50003C 375.09998 309.60004 375 341.80005 375 374.00003C 375 374.50003 374.9 375.00003 374.7 375.80002C 358.9 375.6 343 375.6 326.6 375.6z" stroke="none" fill="#FFFFFF" fill-rule="nonzero" />
        <path d="M187.5 375.8C 171.4 375.8 155.8 375.8 139.8 375.8C 139.8 323.9 139.8 272.19998 139.8 220.19998C 155.7 220.19998 171.40001 220.19998 187.5 220.19998C 187.5 271.9 187.5 323.6 187.5 375.8z" stroke="none" fill="#FFFFFF" fill-rule="nonzero" />
        <path d="M162.2 189C 147.9 188.9 137.9 178.5 138 164.1C 138.1 149.70001 148.5 139.8 163.4 139.90001C 177.59999 140.00002 187.9 150.50002 187.7 164.8C 187.7 179 177 189.1 162.2 189z" stroke="none" fill="#FFFFFF" fill-rule="nonzero" />
	</g>
</g>
</svg>