<?xml version="1.0" standalone="no"?>
<!DOCTYPE svg PUBLIC "-//W3C//DTD SVG 1.0//EN" "http://www.w3.org/TR/2001/REC-SVG-20010904/DTD/svg10.dtd">
<svg xmlns="http://www.w3.org/2000/svg" xmlns:xlink="http://www.w3.org/1999/xlink" id="body_1" width="40" height="30">

<g transform="matrix(0.05859375 0 0 0.05859375 5.000001 -0)">
	<g>
        <path d="M258.8 507.2C 120.4 507.8 6.6 392.6 9.9 251.9C 13 118 123.9 7.2 261.9 8.7C 398.7 10.1 511.8 124 508.1 264.8C 504.6 398.2 394.6 507.8 258.8 507.2zM477.8 257.8C 476.7 132.4 375.1 35.9 255.2 38C 138.6 40 40.1 135.2 40.4 258.4C 40.7 383.9 143.1 480.2 263 478C 379.5 475.8 477 380.8 477.8 257.8z" stroke="none" fill="#FFFFFF" fill-rule="nonzero" />
        <path d="M99 230.2C 109.3 233.09999 119.3 236 129.4 238.8C 129.7 238.3 130 237.7 130.29999 237.2C 110.19999 221.7 99.29999 201.79999 99.79999 176.29999C 99.999985 163.09999 103.89999 149.19998 109.59999 142.09999C 148.59999 187.4 197.5 213 256.59998 216.79999C 257.09998 205.9 256.49997 195.49998 258.19998 185.49998C 265.49997 143.4 313.8 116.89999 353.59998 132.49998C 362.99997 136.19998 371.39996 141.39998 378.99997 148.09999C 380.49997 149.4 383.59998 150.49998 385.39996 149.9C 397.49997 145.79999 409.39996 141.29999 421.39996 136.79999C 423.09998 136.19998 424.59998 135.19998 427.19995 133.79999C 421.69995 150.69998 411.49994 162.69998 398.39996 173.19998C 402.49997 172.49998 406.59998 171.89998 410.59998 170.99998C 414.99997 169.99998 419.3 168.69998 423.59998 167.29999C 427.59998 165.99998 431.59998 164.49998 436.69998 162.59999C 427.69998 176.09999 417.59998 186.79999 405.8 195.9C 402.4 198.5 401.09998 201 401.09998 205.4C 401.59998 260.9 382.8 309.2 345.89996 350.2C 317.09998 382.2 280.99997 402.1 238.59996 410.30002C 206.49997 416.50003 174.69995 415.90002 142.99997 407.6C 123.59997 402.5 105.29997 394.5 88.19997 384C 87.69997 383.7 87.299965 383.2 86.299965 382.3C 125.19997 385.59998 159.79996 376.19998 191.49997 352.4C 158.39996 349.19998 136.49997 332.8 124.19997 301.9C 134.89996 301.9 144.69997 301.9 154.49997 301.9C 154.59998 301.4 154.69997 300.8 154.79997 300.3C 134.19997 294.69998 118.29997 282.9 107.89997 264.19998C 101.8 253.5 99.1 242 99 230.2z" stroke="none" fill="#FFFFFF" fill-rule="nonzero" />
	</g>
</g>
</svg>